<svg
      xmlns="http://www.w3.org/2000/svg"
      width="880"
      height="880"
      version="1.1"
      viewBox="0 0 880 880"
      xmlSpace="preserve"
    >
      <defs>
        <clipPath clipPathUnits="userSpaceOnUse">
          <path d="M0 660h660V0H0z"></path>
        </clipPath>
      </defs>
      <g transform="matrix(1.33333 0 0 -1.33333 0 880)">
        <g fill="#231f20" fillOpacity="1" fillRule="nonzero" stroke="none">
          <path d="M31.141-25.146h3.677c1.135 0 2.026.106 2.672.318.646.212 1.161.51 1.545.893.54.541.961 1.269 1.262 2.182.302.914.453 2.022.453 3.322 0 1.804-.295 3.19-.887 4.159-.591.967-1.31 1.617-2.155 1.946-.612.235-1.594.352-2.949.352h-3.618zm-2.282-2.031v17.235h5.932c1.338 0 2.36-.082 3.065-.247.986-.228 1.828-.639 2.525-1.235.908-.767 1.587-1.749 2.037-2.944.451-1.195.676-2.562.676-4.098 0-1.308-.153-2.469-.458-3.479-.305-1.011-.697-1.848-1.175-2.51-.477-.663-1-1.184-1.568-1.564-.567-.38-1.252-.668-2.055-.864-.802-.196-1.724-.294-2.766-.294z"></path>
          <path d="M47.546-19.739h6.969c-.094 1.052-.36 1.842-.799 2.368-.674.817-1.548 1.225-2.621 1.225-.971 0-1.788-.326-2.45-.978-.662-.651-1.028-1.523-1.099-2.615m6.946-3.407l2.187-.281c-.345-1.277-.983-2.268-1.915-2.973-.931-.705-2.122-1.058-3.571-1.058-1.824 0-3.272.562-4.34 1.687-1.069 1.124-1.603 2.701-1.603 4.731 0 2.1.54 3.729 1.621 4.889 1.08 1.16 2.482 1.74 4.205 1.74 1.668 0 3.03-.568 4.088-1.704 1.057-1.136 1.586-2.735 1.586-4.794 0-.126-.004-.315-.012-.565h-9.317c.079-1.373.467-2.425 1.165-3.155.698-.729 1.569-1.095 2.612-1.095.776 0 1.439.205 1.988.616.549.41.984 1.064 1.306 1.962"></path>
          <path d="M58.489-23.442l2.094.328c.118-.842.445-1.489.983-1.937.538-.448 1.289-.673 2.254-.673.973 0 1.695.199 2.166.595.471.397.706.861.706 1.396 0 .479-.207.855-.62 1.13-.289.189-1.01.428-2.163.719-1.554.392-2.631.731-3.231 1.016-.6.286-1.055.681-1.365 1.187a3.137 3.137 0 00-.464 1.674c0 .557.127 1.071.382 1.545.254.475.602.868 1.04 1.182.329.242.778.448 1.347.616a6.38 6.38 0 001.828.253c.979 0 1.84-.141 2.58-.423.741-.282 1.288-.664 1.641-1.145.352-.482.595-1.125.729-1.932l-2.063-.281c-.094.642-.367 1.144-.818 1.505-.451.361-1.089.541-1.912.541-.974 0-1.668-.161-2.084-.483-.416-.321-.623-.698-.623-1.13 0-.275.086-.523.259-.742.172-.228.443-.417.811-.566.212-.079.836-.259 1.872-.541 1.498-.401 2.543-.728 3.133-.982.59-.255 1.053-.625 1.389-1.11.336-.487.504-1.089.504-1.81 0-.705-.206-1.369-.617-1.992-.412-.622-1.006-1.104-1.783-1.445-.776-.341-1.654-.511-2.634-.511-1.623 0-2.861.338-3.711 1.013-.852.674-1.395 1.675-1.63 3.003"></path>
          <path d="M71.378-14.692h2.109v-12.484h-2.109zm0 4.75h2.109v-2.438h-2.109z"></path>
          <path d="M78.078-20.712c0-1.639.325-2.834.974-3.586.65-.753 1.464-1.129 2.442-1.129.97 0 1.784.374 2.442 1.123.657.748.985 1.922.985 3.522 0 1.528-.338 2.68-1.015 3.457-.677.775-1.492 1.164-2.448 1.164-.938 0-1.737-.383-2.394-1.147s-.986-1.899-.986-3.404m-1.75-7.496l2.062-.313c.086-.632.325-1.093.716-1.382.524-.391 1.24-.586 2.147-.586.978 0 1.733.196 2.265.588.531.392.892.941 1.079 1.647.11.432.16 1.337.153 2.718-.924-1.094-2.075-1.641-3.453-1.641-1.715 0-3.043.619-3.982 1.858-.94 1.238-1.409 2.722-1.409 4.455 0 1.191.216 2.29.646 3.297.431 1.006 1.056 1.785 1.874 2.333.819.548 1.78.823 2.885.823 1.472 0 2.687-.594 3.642-1.781v1.5h1.953v-10.789c0-1.944-.198-3.321-.593-4.131-.396-.811-1.023-1.451-1.881-1.922-.858-.47-1.914-.705-3.168-.705-1.488 0-2.691.335-3.608 1.005-.917.67-1.36 1.678-1.328 3.026"></path>
          <path d="M90.104-27.177v12.485h1.89v-1.775c.916 1.37 2.24 2.056 3.97 2.056.752 0 1.444-.135 2.074-.405.63-.271 1.102-.625 1.415-1.065a4.08 4.08 0 00.658-1.563c.078-.392.118-1.077.118-2.057v-7.676h-2.11v7.598c0 .862-.082 1.507-.246 1.934a2.034 2.034 0 01-.875 1.023c-.419.256-.911.383-1.474.383-.9 0-1.677-.286-2.331-.859-.653-.572-.98-1.658-.98-3.257v-6.822z"></path>
          <path d="M105.062-19.739h6.969c-.094 1.052-.361 1.842-.799 2.368-.674.817-1.548 1.225-2.621 1.225-.972 0-1.788-.326-2.45-.978-.662-.651-1.029-1.523-1.099-2.615m6.945-3.407l2.188-.281c-.345-1.277-.984-2.268-1.915-2.973-.932-.705-2.122-1.058-3.571-1.058-1.825 0-3.272.562-4.34 1.687-1.07 1.124-1.604 2.701-1.604 4.731 0 2.1.54 3.729 1.621 4.889 1.081 1.16 2.483 1.74 4.205 1.74 1.668 0 3.031-.568 4.088-1.704 1.057-1.136 1.586-2.735 1.586-4.794 0-.126-.004-.315-.012-.565h-9.316c.078-1.373.467-2.425 1.165-3.155.697-.729 1.568-1.095 2.611-1.095.777 0 1.439.205 1.989.616.548.41.984 1.064 1.305 1.962"></path>
          <path d="M118.255-20.948c0-1.6.337-2.795 1.01-3.588.674-.791 1.469-1.188 2.385-1.188.924 0 1.709.378 2.355 1.135.646.757.969 1.911.969 3.464 0 1.71-.329 2.964-.987 3.765-.657.798-1.468 1.199-2.431 1.199-.94 0-1.724-.385-2.355-1.152-.63-.77-.946-1.981-.946-3.635m6.688-6.229v1.571c-.791-1.235-1.955-1.852-3.49-1.852-.995 0-1.91.274-2.744.822-.834.549-1.48 1.315-1.938 2.299-.458.983-.688 2.113-.688 3.391 0 1.246.208 2.376.624 3.39.415 1.015 1.037 1.793 1.868 2.334.83.54 1.758.811 2.784.811.752 0 1.422-.158 2.01-.476a4.2 4.2 0 001.433-1.239v6.184h2.11v-17.235z"></path>
          <path d="M144.882-20.911c-.767-.314-1.918-.58-3.451-.799-.869-.126-1.484-.268-1.844-.424a1.808 1.808 0 01-1.127-1.693c0-.565.213-1.034.639-1.41.426-.377 1.049-.565 1.869-.565.813 0 1.535.178 2.168.535.633.357 1.098.844 1.395 1.463.226.479.34 1.184.34 2.117zm.172-4.719c-.786-.668-1.541-1.141-2.263-1.415a6.492 6.492 0 00-2.327-.413c-1.367 0-2.418.335-3.152 1.005-.734.67-1.102 1.526-1.102 2.567 0 .612.139 1.17.416 1.675a3.46 3.46 0 001.09 1.217c.45.306.955.536 1.518.693.414.11 1.039.216 1.875.318 1.703.203 2.957.446 3.762.728.007.29.011.475.011.553 0 .863-.199 1.471-.598 1.823-.539.479-1.341.718-2.404.718-.992 0-1.725-.175-2.198-.524-.474-.348-.823-.965-1.05-1.851l-2.062.281c.188.886.497 1.601.928 2.146.43.544 1.052.963 1.867 1.256.814.295 1.758.442 2.831.442 1.064 0 1.929-.125 2.596-.376.665-.251 1.154-.567 1.467-.946.314-.38.533-.861.658-1.44.071-.361.106-1.012.106-1.951v-2.822c0-1.967.045-3.211.136-3.733.09-.52.268-1.019.536-1.498h-2.203c-.227.442-.373.957-.438 1.547"></path>
          <path d="M150.31-27.177v12.485h1.89v-1.775c.916 1.37 2.24 2.056 3.97 2.056.752 0 1.444-.135 2.074-.405.631-.271 1.102-.625 1.415-1.065a4.08 4.08 0 00.658-1.563c.078-.392.118-1.077.118-2.057v-7.676h-2.11v7.598c0 .862-.082 1.507-.246 1.934a2.034 2.034 0 01-.875 1.023c-.419.256-.911.383-1.474.383-.9 0-1.677-.286-2.331-.859-.653-.572-.98-1.658-.98-3.257v-6.822z"></path>
          <path d="M165.081-20.948c0-1.6.336-2.795 1.009-3.588.674-.791 1.469-1.188 2.385-1.188.924 0 1.709.378 2.356 1.135.645.757.968 1.911.968 3.464 0 1.71-.329 2.964-.986 3.765-.658.798-1.469 1.199-2.432 1.199-.94 0-1.724-.385-2.355-1.152-.63-.77-.945-1.981-.945-3.635m6.687-6.229v1.571c-.791-1.235-1.955-1.852-3.49-1.852-.994 0-1.909.274-2.743.822-.834.549-1.481 1.315-1.939 2.299-.458.983-.687 2.113-.687 3.391 0 1.246.207 2.376.623 3.39.415 1.015 1.037 1.793 1.868 2.334.83.54 1.758.811 2.785.811.752 0 1.421-.158 2.009-.476a4.2 4.2 0 001.433-1.239v6.184h2.11v-17.235z"></path>
          <path d="M183.724-27.177v12.485h1.89v-1.895c.487.886.937 1.471 1.349 1.752.413.283.867.424 1.362.424.715 0 1.441-.228 2.18-.682l-.74-1.957c-.516.301-1.033.451-1.549.451-.461 0-.876-.138-1.243-.417-.368-.278-.63-.664-.787-1.158a8.241 8.241 0 01-.353-2.468v-6.535z"></path>
          <path d="M193.345-19.739h6.968c-.094 1.052-.36 1.842-.799 2.368-.674.817-1.547 1.225-2.62 1.225-.972 0-1.789-.326-2.451-.978-.662-.651-1.028-1.523-1.098-2.615m6.945-3.407l2.187-.281c-.345-1.277-.982-2.268-1.914-2.973-.933-.705-2.123-1.058-3.571-1.058-1.825 0-3.272.562-4.341 1.687-1.068 1.124-1.603 2.701-1.603 4.731 0 2.1.54 3.729 1.621 4.889 1.081 1.16 2.482 1.74 4.206 1.74 1.667 0 3.03-.568 4.087-1.704 1.057-1.136 1.586-2.735 1.586-4.794 0-.126-.004-.315-.012-.565h-9.316c.078-1.373.466-2.425 1.164-3.155.699-.729 1.569-1.095 2.612-1.095.776 0 1.439.205 1.988.616.549.41.984 1.064 1.306 1.962"></path>
          <path d="M205.1-9.942h2.109v-17.234H205.1z"></path>
          <path d="M212.07-19.739h6.969c-.094 1.052-.361 1.842-.799 2.368-.674.817-1.547 1.225-2.62 1.225-.972 0-1.789-.326-2.451-.978-.662-.651-1.028-1.523-1.099-2.615m6.946-3.407l2.187-.281c-.345-1.277-.983-2.268-1.915-2.973-.932-.705-2.122-1.058-3.571-1.058-1.824 0-3.271.562-4.341 1.687-1.068 1.124-1.603 2.701-1.603 4.731 0 2.1.541 3.729 1.622 4.889 1.08 1.16 2.482 1.74 4.205 1.74 1.668 0 3.03-.568 4.088-1.704 1.057-1.136 1.585-2.735 1.585-4.794 0-.126-.003-.315-.011-.565h-9.317c.079-1.373.467-2.425 1.165-3.155.698-.729 1.568-1.095 2.612-1.095.776 0 1.439.205 1.987.616.549.41.985 1.064 1.307 1.962"></path>
          <path d="M231.826-20.911c-.767-.314-1.918-.58-3.452-.799-.869-.126-1.483-.268-1.843-.424a1.835 1.835 0 01-.834-.687 1.807 1.807 0 01-.293-1.006c0-.565.213-1.034.638-1.41.426-.377 1.049-.565 1.87-.565.812 0 1.535.178 2.168.535.632.357 1.097.844 1.394 1.463.227.479.34 1.184.34 2.117zm.172-4.719c-.787-.668-1.541-1.141-2.264-1.415a6.487 6.487 0 00-2.326-.413c-1.367 0-2.418.335-3.153 1.005-.734.67-1.101 1.526-1.101 2.567 0 .612.138 1.17.416 1.675.277.506.64.911 1.09 1.217.449.306.955.536 1.517.693.414.11 1.039.216 1.875.318 1.703.203 2.957.446 3.762.728.008.29.012.475.012.553 0 .863-.2 1.471-.598 1.823-.54.479-1.341.718-2.404.718-.993 0-1.726-.175-2.199-.524-.473-.348-.823-.965-1.049-1.851l-2.063.281c.188.886.497 1.601.928 2.146.431.544 1.053.963 1.867 1.256.815.295 1.758.442 2.831.442 1.065 0 1.93-.125 2.596-.376.665-.251 1.155-.567 1.468-.946.313-.38.532-.861.658-1.44.07-.361.105-1.012.105-1.951v-2.822c0-1.967.045-3.211.136-3.733.09-.52.269-1.019.536-1.498h-2.203c-.227.442-.373.957-.437 1.547"></path>
          <path d="M236.394-23.442l2.093.328c.118-.842.446-1.489.983-1.937.538-.448 1.289-.673 2.254-.673.974 0 1.695.199 2.166.595.471.397.707.861.707 1.396 0 .479-.207.855-.621 1.13-.289.189-1.01.428-2.163.719-1.554.392-2.631.731-3.23 1.016-.601.286-1.056.681-1.366 1.187a3.146 3.146 0 00-.464 1.674c0 .557.127 1.071.382 1.545.255.475.602.868 1.04 1.182.329.242.779.448 1.347.616a6.384 6.384 0 001.828.253c.98 0 1.84-.141 2.581-.423.74-.282 1.287-.664 1.64-1.145.352-.482.596-1.125.729-1.932l-2.063-.281c-.094.642-.366 1.144-.818 1.505-.451.361-1.088.541-1.912.541-.973 0-1.668-.161-2.084-.483-.416-.321-.623-.698-.623-1.13 0-.275.086-.523.259-.742.172-.228.443-.417.812-.566.212-.079.836-.259 1.871-.541 1.499-.401 2.543-.728 3.133-.982.59-.255 1.053-.625 1.389-1.11.336-.487.505-1.089.505-1.81 0-.705-.206-1.369-.618-1.992-.412-.622-1.006-1.104-1.782-1.445-.777-.341-1.655-.511-2.635-.511-1.623 0-2.86.338-3.711 1.013-.852.674-1.395 1.675-1.629 3.003"></path>
          <path d="M250.861-19.739h6.969c-.094 1.052-.361 1.842-.799 2.368-.674.817-1.548 1.225-2.621 1.225-.972 0-1.788-.326-2.451-.978-.662-.651-1.028-1.523-1.098-2.615m6.945-3.407l2.188-.281c-.345-1.277-.984-2.268-1.915-2.973-.932-.705-2.122-1.058-3.572-1.058-1.824 0-3.271.562-4.34 1.687-1.069 1.124-1.603 2.701-1.603 4.731 0 2.1.54 3.729 1.621 4.889 1.08 1.16 2.482 1.74 4.205 1.74 1.668 0 3.031-.568 4.088-1.704 1.057-1.136 1.586-2.735 1.586-4.794 0-.126-.004-.315-.012-.565h-9.316c.078-1.373.467-2.425 1.164-3.155.698-.729 1.569-1.095 2.612-1.095.777 0 1.439.205 1.988.616.549.41.984 1.064 1.306 1.962"></path>
          <path d="M264.053-20.948c0-1.6.337-2.795 1.01-3.588.674-.791 1.469-1.188 2.385-1.188.924 0 1.709.378 2.355 1.135.646.757.969 1.911.969 3.464 0 1.71-.329 2.964-.987 3.765-.658.798-1.468 1.199-2.431 1.199-.94 0-1.725-.385-2.355-1.152-.63-.77-.946-1.981-.946-3.635m6.688-6.229v1.571c-.791-1.235-1.954-1.852-3.49-1.852-.995 0-1.91.274-2.744.822-.834.549-1.48 1.315-1.938 2.299-.458.983-.688 2.113-.688 3.391 0 1.246.208 2.376.623 3.39.415 1.015 1.038 1.793 1.869 2.334.83.54 1.757.811 2.785.811.752 0 1.422-.158 2.009-.476a4.209 4.209 0 001.433-1.239v6.184h2.109v-17.235z"></path>
          <path d="M282.728-14.692h2.109v-12.484h-2.109zm0 4.75h2.109v-2.438h-2.109z"></path>
          <path d="M288.073-27.177v12.485h1.89v-1.775c.916 1.37 2.24 2.056 3.971 2.056.751 0 1.442-.135 2.073-.405.63-.271 1.102-.625 1.415-1.065.314-.438.533-.96.659-1.563.078-.392.117-1.077.117-2.057v-7.676h-2.11v7.598c0 .862-.082 1.507-.247 1.934a2.027 2.027 0 01-.874 1.023c-.419.256-.91.383-1.473.383-.901 0-1.678-.286-2.331-.859-.654-.572-.981-1.658-.981-3.257v-6.822z"></path>
          <path d="M310.043-21.007c0-1.607.326-2.796.975-3.564.649-.769 1.436-1.153 2.359-1.153.939 0 1.744.399 2.413 1.194.668.797 1.003 2.029 1.003 3.699 0 1.592-.327 2.783-.98 3.576-.653.791-1.435 1.188-2.342 1.188-.899 0-1.696-.422-2.388-1.265-.693-.843-1.04-2.067-1.04-3.675m-1.906-10.951v17.266h1.922v-1.622c.454.633.968 1.11 1.539 1.427.571.318 1.265.476 2.08.476 1.066 0 2.005-.275 2.82-.822.814-.549 1.429-1.324 1.844-2.323.415-.999.623-2.093.623-3.285 0-1.277-.229-2.427-.687-3.449-.458-1.023-1.124-1.807-1.997-2.352-.874-.544-1.793-.816-2.756-.816-.705 0-1.338.148-1.898.445-.56.297-1.02.672-1.38 1.125v-6.07z"></path>
          <path d="M329.674-27.177v1.841c-.968-1.415-2.285-2.122-3.949-2.122-.734 0-1.42.141-2.057.423-.636.282-1.109.637-1.418 1.064-.308.427-.525.95-.65 1.57-.086.415-.129 1.073-.129 1.974v7.735h2.11v-6.92c0-1.105.043-1.848.128-2.233.133-.555.415-.992.845-1.309.43-.318.961-.476 1.595-.476.633 0 1.227.162 1.782.487.555.326.947.768 1.179 1.328.23.56.346 1.373.346 2.438v6.685h2.108v-12.485z"></path>
          <path d="M336.804-20.841c0-1.498.204-2.58.612-3.247.667-1.091 1.569-1.636 2.708-1.636.926 0 1.727.403 2.401 1.206.675.804 1.013 2.002 1.013 3.595 0 1.632-.324 2.836-.972 3.612-.647.777-1.43 1.165-2.348 1.165-.926 0-1.727-.402-2.402-1.206-.674-.803-1.012-1.966-1.012-3.489m.031-6.336h-1.953v17.235h2.109v-6.145c.895 1.117 2.035 1.676 3.424 1.676.769 0 1.496-.154 2.183-.465a4.445 4.445 0 001.694-1.305c.443-.559.791-1.235 1.041-2.027a8.32 8.32 0 00.377-2.539c0-2.139-.529-3.792-1.589-4.96-1.059-1.167-2.331-1.751-3.813-1.751-1.476 0-2.633.613-3.473 1.84z"></path>
          <path d="M348.231-9.942h2.109v-17.234h-2.109z"></path>
          <path d="M353.623-14.692h2.109v-12.484h-2.109zm0 4.75h2.109v-2.438h-2.109z"></path>
          <path d="M367.109-22.599l2.079-.281c-.228-1.432-.81-2.553-1.747-3.363-.936-.811-2.087-1.215-3.45-1.215-1.709 0-3.082.559-4.121 1.675-1.039 1.116-1.557 2.717-1.557 4.802 0 1.347.223 2.527.669 3.537.447 1.011 1.126 1.769 2.039 2.275a6.061 6.061 0 002.98.758c1.355 0 2.465-.344 3.326-1.029.861-.687 1.414-1.662 1.657-2.924l-2.062-.313c-.196.84-.542 1.472-1.04 1.896-.497.424-1.098.635-1.803.635-1.065 0-1.931-.382-2.596-1.147-.666-.765-.999-1.975-.999-3.63 0-1.679.322-2.898.965-3.659.644-.761 1.483-1.142 2.519-1.142.831 0 1.525.256 2.082.767.557.511.91 1.297 1.059 2.358"></path>
          <path d="M379.073-20.948c0-1.6.337-2.795 1.01-3.588.674-.791 1.469-1.188 2.385-1.188.924 0 1.709.378 2.355 1.135.646.757.969 1.911.969 3.464 0 1.71-.329 2.964-.986 3.765-.659.798-1.469 1.199-2.432 1.199-.939 0-1.725-.385-2.355-1.152-.63-.77-.946-1.981-.946-3.635m6.688-6.229v1.571c-.791-1.235-1.955-1.852-3.49-1.852-.995 0-1.91.274-2.744.822-.834.549-1.48 1.315-1.938 2.299-.459.983-.688 2.113-.688 3.391 0 1.246.207 2.376.623 3.39.415 1.015 1.038 1.793 1.869 2.334.83.54 1.758.811 2.784.811.752 0 1.422-.158 2.01-.476a4.2 4.2 0 001.433-1.239v6.184h2.109v-17.235z"></path>
          <path d="M392.438-20.937c0-1.599.348-2.796 1.045-3.593.698-.795 1.575-1.194 2.632-1.194 1.05 0 1.923.401 2.62 1.2.698.8 1.046 2.019 1.046 3.658 0 1.545-.35 2.715-1.052 3.512-.701.794-1.572 1.193-2.614 1.193-1.057 0-1.934-.397-2.632-1.188-.697-.793-1.045-1.988-1.045-3.588m-2.172.002c0 2.312.641 4.024 1.926 5.137 1.073.924 2.38 1.387 3.923 1.387 1.715 0 3.116-.563 4.205-1.687 1.089-1.125 1.633-2.678 1.633-4.661 0-1.605-.241-2.869-.723-3.79a5.108 5.108 0 00-2.102-2.145 6.12 6.12 0 00-3.013-.764c-1.746 0-3.158.561-4.234 1.681-1.077 1.12-1.615 2.735-1.615 4.842"></path>
          <path d="M404.436-27.177v12.485h1.89v-1.747c.392.609.911 1.1 1.561 1.471.649.371 1.387.557 2.217.557.922 0 1.679-.192 2.27-.574a3.08 3.08 0 001.249-1.607c.988 1.454 2.275 2.181 3.859 2.181 1.24 0 2.193-.343 2.86-1.028.667-.687 1-1.743 1-3.168v-8.57h-2.11v7.868c0 .847-.068 1.456-.206 1.83a1.765 1.765 0 01-.746.899c-.361.227-.785.341-1.27.341-.879 0-1.609-.292-2.189-.876-.58-.585-.87-1.52-.87-2.806v-7.256h-2.109v8.115c0 .941-.172 1.647-.517 2.117-.345.47-.908.706-1.691.706a3.072 3.072 0 01-1.651-.471c-.504-.313-.871-.772-1.097-1.376-.227-.603-.341-1.474-.341-2.61v-6.481z"></path>
          <path d="M432.438-20.911c-.767-.314-1.918-.58-3.453-.799-.868-.126-1.482-.268-1.842-.424a1.827 1.827 0 01-.833-.687 1.8 1.8 0 01-.294-1.006c0-.565.213-1.034.638-1.41.426-.377 1.049-.565 1.869-.565.813 0 1.536.178 2.168.535.633.357 1.098.844 1.395 1.463.227.479.34 1.184.34 2.117zm.171-4.719c-.786-.668-1.541-1.141-2.263-1.415a6.487 6.487 0 00-2.326-.413c-1.368 0-2.418.335-3.153 1.005-.734.67-1.101 1.526-1.101 2.567 0 .612.138 1.17.416 1.675.277.506.64.911 1.089 1.217.45.306.956.536 1.518.693.414.11 1.039.216 1.875.318 1.703.203 2.957.446 3.762.728.008.29.012.475.012.553 0 .863-.2 1.471-.599 1.823-.539.479-1.34.718-2.403.718-.994 0-1.726-.175-2.199-.524-.473-.348-.823-.965-1.049-1.851l-2.063.281c.188.886.497 1.601.928 2.146.43.544 1.052.963 1.867 1.256.814.295 1.759.442 2.831.442 1.064 0 1.93-.125 2.596-.376.665-.251 1.154-.567 1.467-.946.314-.38.533-.861.659-1.44.07-.361.105-1.012.105-1.951v-2.822c0-1.967.045-3.211.136-3.733.09-.52.268-1.019.536-1.498h-2.203c-.228.442-.373.957-.438 1.547"></path>
          <path d="M437.865-14.692h2.109v-12.484h-2.109zm0 4.75h2.109v-2.438h-2.109z"></path>
          <path d="M443.21-27.177v12.485h1.891v-1.775c.916 1.37 2.239 2.056 3.97 2.056.752 0 1.443-.135 2.074-.405.629-.271 1.101-.625 1.415-1.065.313-.438.532-.96.658-1.563.078-.392.117-1.077.117-2.057v-7.676h-2.109v7.598c0 .862-.082 1.507-.247 1.934a2.039 2.039 0 01-.875 1.023c-.418.256-.91.383-1.473.383-.901 0-1.678-.286-2.331-.859-.654-.572-.981-1.658-.981-3.257v-6.822z"></path>
          <path d="M465.181-20.841c0-1.498.204-2.58.612-3.247.667-1.091 1.569-1.636 2.708-1.636.926 0 1.727.403 2.401 1.206.675.804 1.013 2.002 1.013 3.595 0 1.632-.324 2.836-.972 3.612-.647.777-1.43 1.165-2.348 1.165-.926 0-1.727-.402-2.402-1.206-.674-.803-1.012-1.966-1.012-3.489m.031-6.336h-1.953v17.235h2.109v-6.145c.895 1.117 2.035 1.676 3.424 1.676.769 0 1.496-.154 2.183-.465a4.445 4.445 0 001.694-1.305c.443-.559.791-1.235 1.041-2.027a8.32 8.32 0 00.377-2.539c0-2.139-.529-3.792-1.589-4.96-1.06-1.167-2.331-1.751-3.813-1.751-1.476 0-2.633.613-3.473 1.84z"></path>
          <path d="M476.562-31.979l-.235 1.99c.461-.125.864-.188 1.208-.188.47 0 .845.078 1.126.235.281.157.513.377.693.658.132.212.347.736.645 1.574.039.118.102.29.188.518l-4.75 12.5h2.28l2.602-7.198c.338-.912.64-1.872.908-2.879.244.941.535 1.873.873 2.797l2.665 7.28h2.114l-4.733-12.704c-.51-1.369-.906-2.31-1.188-2.827-.376-.695-.807-1.205-1.293-1.53-.486-.324-1.066-.486-1.74-.486-.407 0-.862.086-1.363.26"></path>
          <path d="M495.744-27.177v17.235h11.625v-2.032h-9.344v-5.343h8.094v-2.032h-8.094v-7.828z"></path>
          <path d="M510.034-27.177v12.485h1.891v-1.895c.487.886.936 1.471 1.349 1.752.413.283.866.424 1.362.424.715 0 1.441-.228 2.179-.682l-.74-1.957c-.515.301-1.032.451-1.549.451-.461 0-.875-.138-1.243-.417-.367-.278-.63-.664-.786-1.158a8.21 8.21 0 01-.353-2.468v-6.535z"></path>
          <path d="M519.655-19.739h6.969c-.094 1.052-.36 1.842-.799 2.368-.674.817-1.548 1.225-2.621 1.225-.972 0-1.788-.326-2.45-.978-.662-.651-1.028-1.523-1.099-2.615m6.946-3.407l2.187-.281c-.345-1.277-.983-2.268-1.915-2.973-.932-.705-2.122-1.058-3.571-1.058-1.824 0-3.272.562-4.34 1.687-1.069 1.124-1.604 2.701-1.604 4.731 0 2.1.54 3.729 1.621 4.889 1.081 1.16 2.483 1.74 4.206 1.74 1.668 0 3.031-.568 4.087-1.704 1.057-1.136 1.586-2.735 1.586-4.794 0-.126-.004-.315-.011-.565h-9.317c.078-1.373.467-2.425 1.164-3.155.699-.729 1.57-1.095 2.613-1.095.776 0 1.438.205 1.988.616.549.41.983 1.064 1.306 1.962"></path>
          <path d="M533.035-19.739h6.969c-.095 1.052-.36 1.842-.799 2.368-.674.817-1.548 1.225-2.621 1.225-.972 0-1.788-.326-2.45-.978-.662-.651-1.029-1.523-1.099-2.615m6.945-3.407l2.188-.281c-.345-1.277-.983-2.268-1.915-2.973-.932-.705-2.122-1.058-3.57-1.058-1.826 0-3.273.562-4.341 1.687-1.07 1.124-1.604 2.701-1.604 4.731 0 2.1.54 3.729 1.621 4.889 1.081 1.16 2.483 1.74 4.205 1.74 1.668 0 3.031-.568 4.088-1.704 1.058-1.136 1.586-2.735 1.586-4.794 0-.126-.004-.315-.011-.565h-9.317c.078-1.373.467-2.425 1.165-3.155.697-.729 1.569-1.095 2.612-1.095.776 0 1.439.205 1.988.616.549.41.984 1.064 1.305 1.962"></path>
          <path d="M544.338-21.646l2.156.188c.102-.864.338-1.574.709-2.128.371-.554.948-1.002 1.73-1.344.781-.341 1.661-.512 2.637-.512.868 0 1.634.129 2.298.388.664.26 1.158.616 1.484 1.068.324.451.486.944.486 1.476 0 .541-.156 1.013-.468 1.417-.311.404-.828.742-1.549 1.017-.462.18-1.484.461-3.066.842-1.583.38-2.692.739-3.328 1.077-.824.431-1.438.967-1.842 1.607a3.94 3.94 0 00-.606 2.149c0 .871.247 1.685.741 2.442.493.757 1.215 1.332 2.163 1.725.948.392 2.003.588 3.163.588 1.278 0 2.404-.205 3.381-.616.976-.411 1.726-1.015 2.252-1.813.525-.798.807-1.701.846-2.711l-2.187-.172c-.118 1.087-.515 1.908-1.192 2.464-.678.556-1.68.833-3.003.833-1.38 0-2.384-.253-3.015-.759-.631-.507-.946-1.116-.946-1.83 0-.62.223-1.13.67-1.53.438-.401 1.585-.811 3.437-1.23 1.853-.42 3.124-.786 3.814-1.099 1.002-.462 1.743-1.048 2.221-1.757.478-.709.717-1.526.717-2.449 0-.917-.263-1.781-.787-2.591-.525-.812-1.277-1.442-2.26-1.892-.982-.45-2.089-.676-3.317-.676-1.558 0-2.864.228-3.916.682-1.053.454-1.879 1.138-2.478 2.051-.598.912-.914 1.944-.945 3.095"></path>
          <path d="M566.063-27.177l-6.666 17.235h2.472l4.478-12.516c.36-1.003.662-1.943.905-2.82.267.939.576 1.88.929 2.82l4.657 12.516h2.331l-6.748-17.235z"></path>
          <path d="M585.26-20.427v2.031h7.297v-6.388c-1.12-.893-2.277-1.565-3.468-2.014a10.27 10.27 0 00-3.666-.676c-1.694 0-3.231.363-4.613 1.088a7.184 7.184 0 00-3.133 3.146c-.705 1.372-1.058 2.905-1.058 4.598 0 1.678.351 3.244 1.052 4.698.701 1.455 1.71 2.535 3.026 3.24 1.317.706 2.833 1.058 4.549 1.058 1.245 0 2.372-.202 3.379-.606 1.007-.404 1.796-.968 2.368-1.689.572-.722 1.007-1.664 1.305-2.827l-2.058-.563c-.259.878-.58 1.568-.965 2.071-.383.503-.932.906-1.645 1.208-.714.302-1.506.453-2.376.453-1.042 0-1.944-.158-2.704-.476-.761-.317-1.375-.735-1.841-1.252a5.983 5.983 0 01-1.088-1.704c-.438-1.066-.658-2.222-.658-3.468 0-1.536.265-2.821.794-3.855.529-1.036 1.299-1.803 2.31-2.305a7.161 7.161 0 013.222-.752c.988 0 1.952.189 2.894.568.94.38 1.653.784 2.139 1.215v3.201z"></path>
          <path d="M596.239-24.771h2.406v-2.406h-2.406z"></path>
          <path d="M603.705-20.937c0-1.599.349-2.796 1.046-3.593.697-.795 1.574-1.194 2.632-1.194 1.05 0 1.923.401 2.62 1.2.697.8 1.046 2.019 1.046 3.658 0 1.545-.351 2.715-1.052 3.512-.701.794-1.572 1.193-2.614 1.193-1.058 0-1.935-.397-2.632-1.188-.697-.793-1.046-1.988-1.046-3.588m-2.172.002c0 2.312.642 4.024 1.927 5.137 1.072.924 2.38 1.387 3.923 1.387 1.715 0 3.116-.563 4.205-1.687 1.089-1.125 1.633-2.678 1.633-4.661 0-1.605-.242-2.869-.723-3.79a5.114 5.114 0 00-2.102-2.145 6.12 6.12 0 00-3.013-.764c-1.746 0-3.158.561-4.235 1.681-1.077 1.12-1.615 2.735-1.615 4.842"></path>
          <path d="M615.679-27.177v12.485h1.89v-1.895c.488.886.937 1.471 1.35 1.752a2.35 2.35 0 001.361.424c.715 0 1.442-.228 2.18-.682l-.74-1.957c-.516.301-1.032.451-1.549.451-.461 0-.875-.138-1.243-.417-.367-.278-.63-.664-.786-1.158-.237-.752-.354-1.575-.354-2.468v-6.535z"></path>
          <path d="M625.077-20.712c0-1.639.325-2.834.975-3.586.649-.753 1.463-1.129 2.441-1.129.971 0 1.784.374 2.442 1.123.658.748.986 1.922.986 3.522 0 1.528-.338 2.68-1.016 3.457-.676.775-1.492 1.164-2.447 1.164-.939 0-1.737-.383-2.395-1.147-.657-.764-.986-1.899-.986-3.404m-1.75-7.496l2.063-.313c.086-.632.325-1.093.715-1.382.525-.391 1.241-.586 2.148-.586.977 0 1.732.196 2.265.588.531.392.891.941 1.079 1.647.109.432.16 1.337.152 2.718-.924-1.094-2.074-1.641-3.453-1.641-1.715 0-3.042.619-3.982 1.858-.939 1.238-1.409 2.722-1.409 4.455 0 1.191.216 2.29.647 3.297.43 1.006 1.055 1.785 1.874 2.333.818.548 1.78.823 2.884.823 1.472 0 2.687-.594 3.642-1.781v1.5h1.953v-10.789c0-1.944-.197-3.321-.593-4.131-.396-.811-1.023-1.451-1.88-1.922-.859-.47-1.914-.705-3.168-.705-1.489 0-2.692.335-3.609 1.005-.917.67-1.359 1.678-1.328 3.026"></path>
        </g>
        <g>
          <path
            fill="#323134"
            fillOpacity="1"
            fillRule="evenodd"
            stroke="none"
            d="M142.952 307.24c34.68 10.728 70.661-6.052 107.092-32.403-35.519 19.629-71.127 34.835-107.092 32.403m191.651-7.277c-18.942-16.165-22.163-38.317-19.201-62.824-9.263 26.069-5.808 47.974 19.201 62.824m-18.337 3.969c-17.445-14.89-20.411-35.293-17.682-57.867-8.534 24.014-5.353 44.19 17.682 57.867m-18.335 3.969c-15.952-13.614-18.663-32.27-16.169-52.907-7.802 21.953-4.893 40.403 16.169 52.907m73.341-15.877c-21.929-18.716-25.656-44.363-22.227-72.738-10.727 30.185-6.728 55.545 22.227 72.738m-18.335 3.967c-20.435-17.439-23.908-41.34-20.712-67.778-9.996 28.128-6.27 51.759 20.712 67.778m148.204-65.963a4.712 4.712 0 001.552-.424c-1.001-.235-1.792-1.113-1.898-2.23-.132-1.386.845-2.612 2.18-2.738 1.054-.103 2.017.513 2.44 1.46a5.155 5.155 0 00.081-1.545c-.262-2.772-2.641-4.816-5.309-4.561-2.67.254-4.621 2.706-4.358 5.48.265 2.77 2.641 4.813 5.312 4.558m51.869-11.101c-16.336 1.837-31.153 5.216-45.332 9.664.242-1.195.315-2.467.192-3.772-.57-6.016-5.118-10.506-10.153-10.028-5.038.478-8.657 5.743-8.085 11.761.271 2.851 1.435 5.363 3.125 7.162-20.691 7.693-40.651 17.397-62.82 27.531 45.093-7.244 79.236-25.312 123.073-42.318m106.879-7.31c-29.496 51.87-142.877 113.455-257.11 153.855-27.04 70.05-66.158 88.524-117.797 96.485-3.681.567-7.129-.854-9.341-3.849-2.214-2.996-2.557-6.712-.931-10.062 10.609-21.871 6.763-47.614-5.772-67.488l62.882-11.963-69.234 3.275c-33.635 3.029-77.695-10.192-90.393 10.561-40.414 66.056-91.241 113.941-170.885 135.786C15.484 455.94 57.353 414.746 85.375 363.01c1.074 14.062-.011 28.326-2.856 42.758 15.27-21.742 28.039-45.932 35.318-75.484-19.652-29.655-61.13-37.187-87.787-60.826 35.095-4.109 68.804-2.795 99.784 10.284 73.581 31.061 123.425-45.975 185.137-68.962-42.416 5.111-84.013 2.283-125.059-5.908 32.509-24.296 95.641-16.267 194.887-35.335 21.28-4.088 40.098 2.206 9.856 23.141 40.451-20.719 43.007-29.369 15.684-28.502 57.684-13.159 107.407-15.902 155.485-2.222-35.889-4.862-66.978 22.615-93.001 15.061 34.562 15.001 63.434-12.88 109.6-9.661 25.759 9.463 51.25 23.9 77.466 44.263"
          ></path>
        </g>
      </g>
    </svg>